<svg xmlns="http://www.w3.org/2000/svg" viewBox="0 0 3033 3333" shape-rendering="geometricPrecision" text-rendering="geometricPrecision" image-rendering="optimizeQuality" fill-rule="evenodd" clip-rule="evenodd"><path d="M1511 0c566 358 1076 528 1515 488 77 1549-495 2464-1509 2845C538 2976-41 2100 2 464c515 27 1020-84 1509-464zM916 1811c-32-27-36-76-8-108 27-32 76-36 108-8l312 268 683-751c28-31 77-33 108-5s33 77 5 108l-733 806c-28 30-75 34-106 7l-368-316zm595-1620c501 317 953 467 1341 432 68 1371-439 2181-1336 2519C650 2826 137 2051 175 603c456 24 903-75 1336-411z"/></svg>